<svg xmlns="http://www.w3.org/2000/svg" width="32" height="32" viewBox="0 0 32 32" fill="none">
  <path fill-rule="evenodd" clip-rule="evenodd" d="M3.67301 15.3096L14.6953 10.9902L6.94408 7.74903C4.82252 6.86191 2.37221 7.836 1.47114 9.92473C0.571211 12.0108 1.55698 14.4198 3.67301 15.3096ZM2.49715 15.8483C0.39599 14.5237 -0.491191 11.8624 0.516863 9.5257C1.64177 6.91809 4.70079 5.70202 7.34938 6.80952L16.0643 10.4537L24.8614 7.00621C27.535 5.95848 30.565 7.24295 31.6292 9.87514C32.5829 12.2339 31.6342 14.8745 29.503 16.1516C31.6042 17.4763 32.4914 20.1375 31.4833 22.4743C30.3584 25.0819 27.2994 26.298 24.6508 25.1905L15.9358 21.5463L7.13859 24.9938C4.46503 26.0415 1.43498 24.7571 0.370788 22.1249C-0.582871 19.7661 0.365782 17.1254 2.49715 15.8483ZM4.67742 16.8386L3.9558 17.1214C2.21324 17.8043 1.36291 19.7487 2.05652 21.4642C2.75013 23.1798 4.72504 24.017 6.46759 23.3341L13.5623 20.5538L4.67742 16.8386ZM17.3049 21.0098L25.0561 24.251C27.1777 25.1381 29.628 24.164 30.529 22.0753C31.429 19.9891 30.4432 17.5801 28.3271 16.6903L17.3049 21.0098ZM25.9536 15.6979L14.9314 20.0173L6.04649 16.3021L17.0687 11.9827L25.9536 15.6979ZM27.3227 15.1613L28.0442 14.8786C29.7868 14.1957 30.6371 12.2514 29.9435 10.5358C29.2499 8.82016 27.275 7.98298 25.5324 8.66586L18.4378 11.4461L27.3227 15.1613Z" fill="#CEB78B"/>
</svg>